<?xml version="1.0" encoding="UTF-8"?>
<svg id="katman_1" xmlns="http://www.w3.org/2000/svg" version="1.1" viewBox="0 0 300 94">
  <!-- Generator: Adobe Illustrator 30.0.0, SVG Export Plug-In . SVG Version: 2.1.1 Build 123)  -->
  <defs>
    <style>
      .st0 {
        isolation: isolate;
      }

      .st1 {
        fill: #000a00;
      }

      .st2 {
        fill: #000a68;
      }
    </style>
  </defs>
  <g>
    <polygon class="st2" points="82.84 1 36.63 88.37 39.65 94 77.91 22.8 84.92 25.8 82.84 1" fill="#000a68"/>
    <polygon class="st2" points="11.51 20.9 0 20.89 31.05 78.14 36.66 67.16 11.51 20.9"/>
    <polygon class="st2" style="fill: black;" points="58.48 13.42 65.25 16.87 32.35 80.43 35.42 86.13 80.71 0 58.48 13.42"/>
  </g>
  <g class="st0">
    <g class="st0">
      <path class="st1" d="M90.5,38.93h8.58l7.42,21.67,7.49-21.67h8.58l-11.79,34.13h-8.51l-11.79-34.13Z"/>
    </g>
    <g class="st0">
      <path class="st1" d="M127.35,68.07c-3.13-3.33-4.69-7.35-4.69-12.07s1.56-8.75,4.69-12.07c3.13-3.33,6.91-4.99,11.35-4.99s8.22,1.66,11.35,4.99c3.13,3.33,4.69,7.37,4.69,12.11,0,.62-.05,1.32-.15,2.09h-23.64c.48,1.86,1.44,3.38,2.87,4.57,1.43,1.19,3.07,1.78,4.91,1.78,1.41,0,2.72-.37,3.93-1.12,1.21-.75,2.18-1.77,2.91-3.06h8.66c-.92,3.72-2.81,6.77-5.67,9.17-2.86,2.4-6.14,3.6-9.82,3.6-4.46,0-8.26-1.66-11.39-4.99ZM145.94,52.4c-.68-1.44-1.66-2.62-2.95-3.52-1.29-.9-2.72-1.35-4.29-1.35s-3.01.45-4.29,1.35c-1.29.9-2.27,2.08-2.95,3.52h14.48Z"/>
    </g>
    <g class="st0">
      <path class="st2" d="M158.74,21.44h8.08v32.58l13.02-15.09h10.99l-12.08,14.01c3.49.93,6.38,2.93,8.66,6,2.28,3.07,3.42,6.59,3.42,10.56v3.56h-8.08v-3.56c0-2.37-.78-4.38-2.33-6.04-1.55-1.65-3.42-2.48-5.6-2.48h-3.06l-4.95,5.65v6.42h-8.08V21.44Z"/>
    </g>
    <g class="st0">
      <path class="st2" d="M224.94,56.04v17.03h-8.08v-8.51h-2.04c0,.46-.02.96-.07,1.47-.05.52-.23,1.23-.55,2.13-.32.9-.75,1.69-1.31,2.36-.56.67-1.39,1.26-2.51,1.78-1.12.52-2.45.77-4,.77-3.98,0-7.23-1.64-9.75-4.91-2.52-3.28-3.78-7.31-3.78-12.11s1.56-8.78,4.69-12.11c3.13-3.33,6.91-4.99,11.35-4.99s8.22,1.66,11.35,4.99c3.13,3.33,4.69,7.37,4.69,12.11ZM214.54,50c-1.55-1.65-3.43-2.48-5.64-2.48s-4.09.83-5.64,2.48c-1.55,1.65-2.33,3.65-2.33,6s.77,4.35,2.33,6c1.55,1.65,3.43,2.48,5.64,2.48s4.08-.82,5.64-2.48c1.55-1.65,2.33-3.65,2.33-6s-.78-4.35-2.33-6Z"/>
      <path class="st2" d="M229.16,56.04c0-4.75,1.56-8.78,4.69-12.11,3.13-3.33,6.9-4.99,11.31-4.99v8.59c-2.18,0-4.05.83-5.6,2.48-1.55,1.65-2.33,3.66-2.33,6.04v17.03h-8.08v-17.03Z"/>
    </g>
    <g class="st0">
      <path class="st1" d="M252.26,68.07c-3.13-3.33-4.69-7.35-4.69-12.07s1.56-8.75,4.69-12.07c3.13-3.33,6.91-4.99,11.35-4.99s8.22,1.66,11.35,4.99c3.13,3.33,4.69,7.37,4.69,12.11,0,.62-.05,1.32-.15,2.09h-23.64c.48,1.86,1.44,3.38,2.87,4.57,1.43,1.19,3.07,1.78,4.91,1.78,1.41,0,2.72-.37,3.93-1.12,1.21-.75,2.18-1.77,2.91-3.06h8.66c-.92,3.72-2.81,6.77-5.67,9.17-2.86,2.4-6.14,3.6-9.82,3.6-4.46,0-8.26-1.66-11.39-4.99ZM270.85,52.4c-.68-1.44-1.66-2.62-2.95-3.52-1.29-.9-2.72-1.35-4.29-1.35s-3.01.45-4.29,1.35c-1.29.9-2.27,2.08-2.95,3.52h14.48Z"/>
      <path class="st1" d="M282.99,56.04c0-4.75,1.56-8.78,4.69-12.11,3.13-3.33,6.9-4.99,11.31-4.99v8.59c-2.18,0-4.05.83-5.6,2.48-1.55,1.65-2.33,3.66-2.33,6.04v17.03h-8.08v-17.03Z"/>
    </g>
  </g>
</svg>