<?xml version="1.0" encoding="UTF-8"?>
<svg id="Layer_2" data-name="Layer 2" xmlns="http://www.w3.org/2000/svg" viewBox="0 0 174.96 36.74">
  <defs>
    <style>
      .cls-1 {
        fill: #031051;
      }
    </style>
  </defs>
  <g id="katman_1" data-name="katman 1">
    <g>
      <path d="M14.59,2.11c14.79-.59,28.84,12.41,29.09,27.73-.26.01-.53.04-.79.04-4.3,0-8.61-.01-12.91.02-.63,0-.83-.17-.91-.79-.89-6.6-6.89-12.08-13.55-12.42-.3-.02-.59-.06-.93-.1V2.11Z"/>
      <path class="cls-1" d="M0,29.87c.36-6.39,6.25-13.06,14.31-13.07.03.2.08.4.08.61,0,3.87-.01,7.74.01,11.61,0,.67-.16.87-.86.87-4.27-.04-8.55-.02-12.83-.02-.22,0-.43,0-.71,0Z"/>
      <path d="M63.99,9.35c1.65,0,3.2.44,4.54,1.2V0h4.6v27.61h-4.6v-4.57h-1.15c0,.81-.18,4.57-4.8,4.57s-7.72-4.08-7.72-9.13,4.09-9.14,9.13-9.14ZM68.52,18.48c0-2.5-2.03-4.54-4.54-4.54s-4.54,2.03-4.54,4.54,2.03,4.54,4.54,4.54,4.54-2.03,4.54-4.54Z"/>
      <path class="cls-1" d="M84.57,9.35c5.04,0,9.13,4.08,9.13,9.13s-4.09,9.13-9.13,9.13-9.13-4.08-9.13-9.13,4.09-9.14,9.13-9.13ZM89.11,18.48c0-2.5-2.03-4.54-4.54-4.54s-4.54,2.03-4.54,4.54,2.03,4.54,4.54,4.54,4.54-2.03,4.54-4.54Z"/>
      <path d="M104.76,9.35v4.6c-2.5,0-4.54,2.03-4.54,4.54v9.13h-4.6v-9.13c0-5.05,4.09-9.14,9.13-9.14Z"/>
      <path d="M106.56,1.87h4.6v7.48h3.55v4.59h-3.55v4.54c0,2.5,1.05,4.54,3.55,4.54v4.6c-5.04,0-8.15-4.08-8.15-9.13,0-5.53,0-11.08,0-16.62Z"/>
      <path d="M134.42,18.48v9.13h-4.6v-4.57h-1.15c0,.81-.18,4.57-4.8,4.57s-7.72-4.08-7.72-9.13,4.09-9.14,9.13-9.13c5.05,0,9.14,4.08,9.14,9.13h0ZM120.75,18.48c0,2.5,2.03,4.54,4.54,4.54s4.54-2.03,4.54-4.54-2.03-4.54-4.54-4.54-4.53,2.03-4.54,4.54Z"/>
      <path d="M145.53,9.35c1.69,0,3.27.46,4.63,1.26l2.88-2.88,3.25,3.25-2.88,2.88c.8,1.36,1.26,2.94,1.26,4.63v9.13c0,5.05-4.09,9.13-9.13,9.13-4.65,0-8.48-3.46-9.07-7.95h4.68c.52,1.94,2.29,3.36,4.38,3.36,2.59,0,4.65-2.16,4.53-4.75h0v-4.35h-1.15c0,.81-.19,4.57-4.8,4.57s-7.71-4.08-7.71-9.13,4.09-9.14,9.13-9.14ZM150.08,18.48c0-2.5-2.03-4.54-4.54-4.54s-4.54,2.03-4.54,4.54,2.03,4.54,4.54,4.54,4.53-2.03,4.54-4.54Z"/>
      <path d="M165.83,9.35c5.04,0,9.13,4.08,9.13,9.13,0,.38-.03.75-.07,1.12h-13.46c.5,1.96,2.28,3.42,4.4,3.42,1.67,0,3.12-.9,3.91-2.24h4.93c-1.02,3.93-4.59,6.83-8.84,6.83-5.04,0-9.13-4.08-9.13-9.13s4.08-9.14,9.13-9.13ZM165.83,13.95c-1.81,0-3.38,1.07-4.11,2.61h8.21c-.72-1.54-2.29-2.61-4.11-2.61Z"/>
    </g>
  </g>
</svg>