<svg xmlns="http://www.w3.org/2000/svg" xmlns:xlink="http://www.w3.org/1999/xlink" width="175" zoomAndPan="magnify" viewBox="0 0 131.25 30.000001" height="40" preserveAspectRatio="xMidYMid meet" version="1.0"><defs><clipPath id="2c0ce79f4a"><path d="M 12 1 L 33.691406 1 L 33.691406 22 L 12 22 Z M 12 1 " clip-rule="nonzero"/></clipPath><clipPath id="dbffbb7e98"><path d="M 1.753906 12 L 13 12 L 13 22 L 1.753906 22 Z M 1.753906 12 " clip-rule="nonzero"/></clipPath><clipPath id="a8e4899c4c"><path d="M 40 1.089844 L 54 1.089844 L 54 22 L 40 22 Z M 40 1.089844 " clip-rule="nonzero"/></clipPath><clipPath id="c9e8d4088f"><path d="M 99 6 L 115 6 L 115 27.945312 L 99 27.945312 Z M 99 6 " clip-rule="nonzero"/></clipPath><clipPath id="da075c64d5"><path d="M 114 7 L 127.972656 7 L 127.972656 22 L 114 22 Z M 114 7 " clip-rule="nonzero"/></clipPath></defs><g clip-path="url(#2c0ce79f4a)"><path fill="#000000" d="M 12.40625 1.542969 C 23.203125 1.113281 33.464844 10.613281 33.644531 21.8125 C 33.457031 21.816406 33.257812 21.839844 33.070312 21.839844 C 29.929688 21.839844 26.78125 21.832031 23.644531 21.855469 C 23.183594 21.855469 23.035156 21.730469 22.980469 21.277344 C 22.328125 16.453125 17.949219 12.449219 13.085938 12.199219 C 12.867188 12.183594 12.65625 12.15625 12.40625 12.125 Z M 12.40625 1.542969 " fill-opacity="1" fill-rule="nonzero"/></g><g clip-path="url(#dbffbb7e98)"><path fill="#031051" d="M 1.753906 21.832031 C 2.015625 17.164062 6.316406 12.289062 12.203125 12.28125 C 12.222656 12.425781 12.261719 12.574219 12.261719 12.726562 C 12.261719 15.554688 12.253906 18.382812 12.269531 21.210938 C 12.269531 21.703125 12.152344 21.847656 11.640625 21.847656 C 8.523438 21.816406 5.398438 21.832031 2.273438 21.832031 C 2.113281 21.832031 1.957031 21.832031 1.753906 21.832031 Z M 1.753906 21.832031 " fill-opacity="1" fill-rule="nonzero"/></g><g clip-path="url(#a8e4899c4c)"><path fill="#000000" d="M 46.988281 7.921875 C 48.195312 7.921875 49.324219 8.246094 50.304688 8.800781 L 50.304688 1.089844 L 53.660156 1.089844 L 53.660156 21.269531 L 50.304688 21.269531 L 50.304688 17.929688 L 49.464844 17.929688 C 49.464844 18.519531 49.332031 21.269531 45.960938 21.269531 C 42.585938 21.269531 40.324219 18.289062 40.324219 14.597656 C 40.324219 10.90625 43.308594 7.917969 46.988281 7.917969 Z M 50.296875 14.597656 C 50.296875 12.769531 48.8125 11.277344 46.980469 11.277344 C 45.148438 11.277344 43.667969 12.761719 43.667969 14.597656 C 43.667969 16.429688 45.148438 17.914062 46.980469 17.914062 C 48.8125 17.914062 50.296875 16.429688 50.296875 14.597656 Z M 50.296875 14.597656 " fill-opacity="1" fill-rule="nonzero"/></g><path fill="#031051" d="M 62.015625 7.921875 C 65.695312 7.921875 68.679688 10.90625 68.679688 14.597656 C 68.679688 18.289062 65.695312 21.269531 62.015625 21.269531 C 58.335938 21.269531 55.347656 18.289062 55.347656 14.597656 C 55.347656 10.90625 58.335938 7.917969 62.015625 7.921875 Z M 65.328125 14.597656 C 65.328125 12.769531 63.847656 11.277344 62.015625 11.277344 C 60.183594 11.277344 58.699219 12.761719 58.699219 14.597656 C 58.699219 16.429688 60.183594 17.914062 62.015625 17.914062 C 63.847656 17.914062 65.328125 16.429688 65.328125 14.597656 Z M 65.328125 14.597656 " fill-opacity="1" fill-rule="nonzero"/><path fill="#000000" d="M 76.753906 7.921875 L 76.753906 11.285156 C 74.929688 11.285156 73.441406 12.769531 73.441406 14.605469 L 73.441406 21.277344 L 70.082031 21.277344 L 70.082031 14.605469 C 70.082031 10.914062 73.070312 7.921875 76.75 7.921875 Z M 76.753906 7.921875 " fill-opacity="1" fill-rule="nonzero"/><path fill="#000000" d="M 78.070312 2.457031 L 81.429688 2.457031 L 81.429688 7.921875 L 84.019531 7.921875 L 84.019531 11.277344 L 81.429688 11.277344 L 81.429688 14.597656 C 81.429688 16.421875 82.195312 17.914062 84.019531 17.914062 L 84.019531 21.277344 C 80.339844 21.277344 78.070312 18.292969 78.070312 14.605469 C 78.070312 10.5625 78.070312 6.503906 78.070312 2.457031 Z M 78.070312 2.457031 " fill-opacity="1" fill-rule="nonzero"/><path fill="#000000" d="M 98.410156 14.597656 L 98.410156 21.269531 L 95.050781 21.269531 L 95.050781 17.929688 L 94.214844 17.929688 C 94.214844 18.519531 94.082031 21.269531 90.707031 21.269531 C 87.335938 21.269531 85.070312 18.289062 85.070312 14.597656 C 85.070312 10.90625 88.058594 7.917969 91.738281 7.921875 C 95.425781 7.921875 98.410156 10.90625 98.410156 14.597656 Z M 88.429688 14.597656 C 88.429688 16.421875 89.914062 17.914062 91.746094 17.914062 C 93.578125 17.914062 95.058594 16.429688 95.058594 14.597656 C 95.058594 12.761719 93.578125 11.277344 91.746094 11.277344 C 89.914062 11.277344 88.4375 12.761719 88.429688 14.597656 Z M 88.429688 14.597656 " fill-opacity="1" fill-rule="nonzero"/><g clip-path="url(#c9e8d4088f)"><path fill="#000000" d="M 106.523438 7.921875 C 107.757812 7.921875 108.910156 8.257812 109.902344 8.84375 L 112.007812 6.738281 L 114.378906 9.113281 L 112.277344 11.21875 C 112.859375 12.214844 113.195312 13.367188 113.195312 14.605469 L 113.195312 21.277344 C 113.195312 24.96875 110.210938 27.949219 106.53125 27.949219 C 103.136719 27.949219 100.339844 25.421875 99.90625 22.140625 L 103.324219 22.140625 C 103.703125 23.558594 104.996094 24.59375 106.523438 24.59375 C 108.414062 24.59375 109.917969 23.015625 109.832031 21.125 L 109.832031 17.945312 L 108.992188 17.945312 C 108.992188 18.535156 108.851562 21.285156 105.484375 21.285156 C 102.121094 21.285156 99.855469 18.300781 99.855469 14.609375 C 99.855469 10.921875 102.84375 7.929688 106.523438 7.929688 Z M 109.84375 14.597656 C 109.84375 12.769531 108.363281 11.277344 106.53125 11.277344 C 104.699219 11.277344 103.214844 12.761719 103.214844 14.597656 C 103.214844 16.429688 104.699219 17.914062 106.53125 17.914062 C 108.363281 17.914062 109.835938 16.429688 109.84375 14.597656 Z M 109.84375 14.597656 " fill-opacity="1" fill-rule="nonzero"/></g><g clip-path="url(#da075c64d5)"><path fill="#000000" d="M 121.34375 7.921875 C 125.023438 7.921875 128.011719 10.90625 128.011719 14.597656 C 128.011719 14.875 127.988281 15.144531 127.960938 15.414062 L 118.132812 15.414062 C 118.496094 16.847656 119.796875 17.914062 121.34375 17.914062 C 122.5625 17.914062 123.621094 17.257812 124.199219 16.277344 L 127.796875 16.277344 C 127.054688 19.148438 124.449219 21.269531 121.34375 21.269531 C 117.664062 21.269531 114.679688 18.289062 114.679688 14.597656 C 114.679688 10.90625 117.65625 7.917969 121.34375 7.921875 Z M 121.34375 11.285156 C 120.023438 11.285156 118.875 12.066406 118.34375 13.191406 L 124.335938 13.191406 C 123.8125 12.066406 122.664062 11.285156 121.335938 11.285156 Z M 121.34375 11.285156 " fill-opacity="1" fill-rule="nonzero"/></g></svg>